<svg width="250" height="250" viewBox="0 0 250 250" fill="none" xmlns="http://www.w3.org/2000/svg">
<path d="M109.305 241.48L118.647 216.094L120.939 216.3L111.596 241.687L109.305 241.48Z" fill="#2D2B24"/>
<path d="M91.1581 221.728L106.242 218.644L105.517 221.274L94.0235 223.359L94.151 223.218L94.0377 223.629L94.0009 223.442L102.799 231.133L102.074 233.762L90.705 223.371L91.1581 221.728Z" fill="#2D2B24"/>
<path d="M86.7725 220.078L86.0335 221.614L70.6434 221.953L71.8257 219.495L83.5056 219.496L83.3549 219.613L83.5396 219.229L83.5425 219.419L76.2595 210.279L77.4419 207.821L86.7725 220.078Z" fill="#4D4F4E"/>
<path d="M59.2936 203.64L74.4959 206.054L72.8939 208.261L61.4028 206.175L61.5718 206.087L61.3215 206.432L61.3527 206.244L66.8864 216.538L65.2844 218.746L58.2924 205.019L59.2936 203.64Z" fill="#4D4F4E"/>
<path d="M55.7656 200.549L54.5341 201.728L40.0077 196.637L41.978 194.751L52.9116 198.857L52.7296 198.913L53.0374 198.618L52.9732 198.798L49.3667 187.68L51.337 185.794L55.7656 200.549Z" fill="#2D2B24"/>
<path d="M24.079 185.261L49.7439 176.73L51.0107 178.651L25.3458 187.182L24.079 185.261Z" fill="#2D2B24"/>
<path d="M28.2044 158.742L40.018 168.612L37.5106 169.685L28.7151 162L28.9053 162.011L28.5135 162.179L28.6367 162.033L28.1078 173.708L25.6004 174.781L26.6373 159.413L28.2044 158.742Z" fill="#2D2B24"/>
<path d="M26.7564 154.274L25.0947 154.654L15.2312 142.832L17.8899 142.225L25.1735 151.357L24.9884 151.312L25.4038 151.217L25.2566 151.338L27.8603 139.947L30.519 139.339L26.7564 154.274Z" fill="#4D4F4E"/>
<path d="M22.4618 122.532L30.0584 135.926L27.3339 136.049L21.7962 125.761L21.9703 125.839L21.5446 125.858L21.7111 125.765L17.1169 136.508L14.3924 136.63L20.759 122.609L22.4618 122.532Z" fill="#4D4F4E"/>
<path d="M22.6718 117.839L20.9827 117.61L15.8975 103.073L18.6 103.439L22.2136 114.551L22.0561 114.444L22.4784 114.501L22.2981 114.563L28.7346 104.814L31.4371 105.18L22.6718 117.839Z" fill="#2D2B24"/>
<path d="M14.8464 83.5114L37.5169 98.2787L36.8065 100.467L14.136 85.7001L14.8464 83.5114Z" fill="#2D2B24"/>
<path d="M38.1288 70.2032L37.7845 85.6033L35.3834 84.31L35.9027 72.6342L36.0124 72.7901L35.6373 72.588L35.8277 72.5938L26.3793 79.4598L23.9783 78.1664L36.6282 69.3948L38.1288 70.2032Z" fill="#2D2B24"/>
<path d="M40.7096 66.2823L39.3774 65.2188L42.4657 50.1266L44.5971 51.8281L42.0017 63.2242L41.9216 63.0512L42.2546 63.3171L42.0683 63.2774L52.59 58.2086L54.7214 59.9101L40.7096 66.2823Z" fill="#4D4F4E"/>
<path d="M62.8257 43.1213L57.0923 57.4197L55.299 55.365L59.8875 44.6153L59.9354 44.7999L59.6552 44.4788L59.8315 44.5511L48.5739 47.6598L46.7805 45.605L61.7048 41.8371L62.8257 43.1213Z" fill="#4D4F4E"/>
<path d="M66.6154 40.3601L65.7418 38.8964L73.9361 25.8524L75.3339 28.1943L68.8996 37.9512L68.8854 37.7611L69.1038 38.127L68.9433 38.0244L80.5756 36.9762L81.9733 39.318L66.6154 40.3601Z" fill="#2D2B24"/>
<path d="M88.5614 12.8379L91.1499 39.7702L88.9957 40.5795L86.4072 13.6472L88.5614 12.8379Z" fill="#2D2B24"/>
<path d="M113.473 22.7508L101.219 32.0798L100.732 29.3963L110.184 22.5254L110.13 22.7083L110.054 22.289L110.169 22.4415L98.9079 19.3331L98.4214 16.6495L113.169 21.0736L113.473 22.7508Z" fill="#2D2B24"/>
<path d="M118.138 22.3295V20.625L131.859 13.6364V16.3636L121.334 21.4347L121.419 21.2642V21.6903L121.334 21.5199L131.859 26.5909V29.3182L118.138 22.3295Z" fill="#4D4F4E"/>
<path d="M150.025 25.2028L135.278 29.6269L135.765 26.9434L147.025 23.8349L146.911 23.9874L146.987 23.5681L147.04 23.7511L137.589 16.8801L138.075 14.1966L150.329 23.5256L150.025 25.2028Z" fill="#4D4F4E"/>
<path d="M154.541 26.4522L155.139 24.8561L170.438 23.138L169.48 25.6917L157.847 26.7382L157.986 26.6086L157.837 27.0076L157.817 26.818L165.89 35.268L164.932 37.8217L154.541 26.4522Z" fill="#2D2B24"/>
<path d="M189.719 26.4716L170.296 45.2931L168.321 44.1119L187.744 25.2905L189.719 26.4716Z" fill="#2D2B24"/>
<path d="M197.501 52.1527L182.577 48.3848L184.37 46.3301L195.628 49.4387L195.452 49.511L195.732 49.19L195.684 49.3745L191.095 38.6249L192.889 36.5701L198.622 50.8685L197.501 52.1527Z" fill="#2D2B24"/>
<path d="M200.739 55.548L202.071 54.4846L216.083 60.8567L213.951 62.5582L203.43 57.4894L203.616 57.4497L203.283 57.7156L203.363 57.5426L205.958 68.9387L203.827 70.6402L200.739 55.548Z" fill="#4D4F4E"/>
<path d="M218.367 82.2867L205.717 73.5151L208.118 72.2217L217.567 79.0877L217.376 79.0934L217.751 78.8914L217.642 79.0473L217.122 67.3715L219.523 66.0781L219.868 81.4783L218.367 82.2867Z" fill="#4D4F4E"/>
<path d="M220.209 86.6066L221.83 86.0794L232.712 96.9691L230.118 97.8127L222.046 89.3698L222.235 89.3981L221.829 89.5299L221.965 89.3961L220.393 100.976L217.799 101.819L220.209 86.6066Z" fill="#2D2B24"/>
<path d="M242.136 114.136L215.308 110.679L214.999 108.398L241.827 111.856L242.136 114.136Z" fill="#2D2B24"/>
<path d="M226.923 136.237L220.557 122.216L223.281 122.338L227.875 133.081L227.709 132.988L228.135 133.007L227.961 133.085L233.498 122.797L236.223 122.92L228.626 136.314L226.923 136.237Z" fill="#2D2B24"/>
<path d="M226.295 140.893L227.956 141.273L231.719 156.208L229.06 155.6L226.457 144.209L226.604 144.33L226.188 144.235L226.373 144.19L219.09 153.322L216.431 152.715L226.295 140.893Z" fill="#4D4F4E"/>
<path d="M216.408 171.359L215.371 155.991L217.879 157.063L218.408 168.738L218.284 168.593L218.676 168.76L218.486 168.772L227.282 161.086L229.789 162.159L217.975 172.03L216.408 171.359Z" fill="#4D4F4E"/>
<path d="M214.188 175.496L215.611 176.436L213.887 191.744L211.612 190.24L213.176 178.658L213.271 178.823L212.915 178.588L213.104 178.611L203.079 184.602L200.804 183.099L214.188 175.496Z" fill="#2D2B24"/>
<path d="M206.354 209.824L192.339 186.678L193.928 185.014L207.943 208.16L206.354 209.824Z" fill="#2D2B24"/>
<path d="M179.611 211.709L186.603 197.982L188.205 200.189L182.672 210.484L182.641 210.296L182.891 210.641L182.722 210.553L194.213 208.466L195.815 210.673L180.613 213.088L179.611 211.709Z" fill="#2D2B24"/>
<path d="M175.59 214.118L176.329 215.654L166.999 227.91L165.816 225.453L173.099 216.312L173.096 216.503L172.912 216.119L173.062 216.236L161.382 216.236L160.2 213.779L175.59 214.118Z" fill="#4D4F4E"/>
<path d="M145.618 225.381L156.987 214.99L157.712 217.619L148.914 225.311L148.951 225.124L149.064 225.534L148.937 225.393L160.43 227.479L161.155 230.108L146.071 227.024L145.618 225.381Z" fill="#4D4F4E"/>
<path d="M141.01 226.22L141.162 227.918L128.122 236.109L127.878 233.393L137.907 227.398L137.837 227.575L137.799 227.151L137.899 227.313L126.962 223.207L126.717 220.491L141.01 226.22Z" fill="#2D2B24"/>
</svg>
