<svg width="500" height="500" viewBox="0 0 500 500" fill="none" xmlns="http://www.w3.org/2000/svg">
<path d="M249.028 432.83C249.554 432.83 250.005 433.018 250.381 433.394C250.758 433.771 250.946 434.222 250.946 434.747C250.946 435.273 250.758 435.724 250.381 436.1C250.005 436.477 249.554 436.665 249.028 436.665C248.503 436.665 248.052 436.477 247.675 436.1C247.299 435.724 247.111 435.273 247.111 434.747C247.111 434.399 247.199 434.08 247.377 433.788C247.547 433.497 247.778 433.263 248.069 433.085C248.353 432.915 248.673 432.83 249.028 432.83Z" fill="#353535"/>
<path d="M241.315 432.499C241.84 432.521 242.283 432.728 242.643 433.12C243.003 433.512 243.173 433.97 243.151 434.495C243.129 435.021 242.922 435.463 242.53 435.824C242.138 436.184 241.679 436.353 241.154 436.331C240.629 436.309 240.186 436.102 239.826 435.71C239.466 435.318 239.297 434.86 239.319 434.335C239.333 433.987 239.435 433.672 239.625 433.388C239.807 433.104 240.048 432.88 240.346 432.715C240.637 432.556 240.96 432.484 241.315 432.499Z" fill="#353535"/>
<path d="M227.106 454.516L236.299 429.074L238.592 429.266L229.399 454.708L227.106 454.516Z" fill="#353535"/>
<path d="M226.074 431.132C226.596 431.198 227.019 431.441 227.346 431.862C227.672 432.283 227.802 432.754 227.736 433.275C227.67 433.797 227.427 434.22 227.007 434.547C226.586 434.873 226.115 435.003 225.594 434.937C225.072 434.871 224.648 434.628 224.322 434.208C223.996 433.787 223.865 433.316 223.931 432.795C223.975 432.449 224.103 432.143 224.316 431.877C224.521 431.609 224.78 431.406 225.091 431.266C225.394 431.132 225.722 431.088 226.074 431.132Z" fill="#353535"/>
<path d="M218.51 429.972C219.028 430.059 219.442 430.32 219.75 430.754C220.058 431.188 220.169 431.664 220.081 432.182C219.993 432.7 219.733 433.114 219.299 433.422C218.865 433.73 218.389 433.841 217.871 433.753C217.352 433.665 216.939 433.405 216.631 432.971C216.322 432.537 216.212 432.061 216.3 431.543C216.358 431.199 216.498 430.899 216.722 430.642C216.939 430.383 217.205 430.19 217.522 430.064C217.831 429.943 218.16 429.912 218.51 429.972Z" fill="#353535"/>
<path d="M201.654 450.034L213.963 425.944L216.214 426.423L203.905 450.512L201.654 450.034Z" fill="#353535"/>
<path d="M192.557 423.441C193.057 423.603 193.428 423.922 193.669 424.396C193.911 424.87 193.951 425.357 193.788 425.857C193.626 426.357 193.308 426.728 192.833 426.969C192.359 427.211 191.872 427.251 191.372 427.088C190.872 426.926 190.501 426.608 190.26 426.133C190.018 425.659 189.978 425.172 190.141 424.672C190.248 424.341 190.432 424.064 190.69 423.842C190.943 423.618 191.234 423.467 191.566 423.388C191.889 423.313 192.219 423.331 192.557 423.441Z" fill="#353535"/>
<path d="M185.345 420.883C185.837 421.066 186.194 421.4 186.416 421.884C186.638 422.368 186.657 422.856 186.474 423.349C186.29 423.842 185.957 424.199 185.473 424.42C184.989 424.642 184.5 424.661 184.008 424.478C183.515 424.295 183.158 423.961 182.936 423.477C182.715 422.993 182.696 422.505 182.879 422.012C183 421.686 183.195 421.417 183.463 421.206C183.724 420.993 184.022 420.854 184.357 420.789C184.683 420.728 185.012 420.759 185.345 420.883Z" fill="#353535"/>
<path d="M165.028 437.431L181.632 416.075L183.754 416.967L167.149 438.323L165.028 437.431Z" fill="#353535"/>
<path d="M171.272 414.874C171.748 415.097 172.076 415.46 172.256 415.961C172.436 416.462 172.415 416.95 172.191 417.425C171.967 417.901 171.605 418.229 171.104 418.409C170.603 418.589 170.115 418.568 169.639 418.344C169.164 418.12 168.836 417.758 168.655 417.257C168.475 416.756 168.497 416.268 168.721 415.792C168.869 415.477 169.085 415.226 169.37 415.038C169.648 414.847 169.957 414.733 170.296 414.697C170.625 414.664 170.951 414.722 171.272 414.874Z" fill="#353535"/>
<path d="M164.437 411.432C164.903 411.676 165.215 412.052 165.375 412.559C165.534 413.067 165.492 413.554 165.248 414.02C165.005 414.486 164.629 414.798 164.121 414.958C163.613 415.117 163.126 415.075 162.66 414.831C162.195 414.588 161.882 414.212 161.723 413.704C161.564 413.196 161.606 412.709 161.849 412.243C162.011 411.935 162.237 411.693 162.53 411.517C162.816 411.338 163.129 411.237 163.469 411.215C163.8 411.195 164.122 411.268 164.437 411.432Z" fill="#353535"/>
<path d="M142.207 425.304L161.357 406.197L163.35 407.347L144.199 426.454L142.207 425.304Z" fill="#353535"/>
<path d="M141.772 397.201C142.198 397.51 142.452 397.927 142.535 398.453C142.618 398.979 142.506 399.455 142.197 399.88C141.888 400.305 141.47 400.559 140.945 400.642C140.419 400.726 139.943 400.613 139.518 400.304C139.093 399.995 138.839 399.578 138.755 399.052C138.672 398.526 138.785 398.051 139.094 397.625C139.298 397.344 139.558 397.138 139.873 397.006C140.182 396.871 140.507 396.817 140.846 396.844C141.177 396.874 141.485 396.992 141.772 397.201Z" fill="#353535"/>
<path d="M135.703 392.54C136.115 392.866 136.352 393.294 136.413 393.823C136.474 394.352 136.341 394.822 136.015 395.234C135.688 395.646 135.261 395.882 134.732 395.944C134.203 396.005 133.733 395.872 133.321 395.546C132.909 395.219 132.673 394.792 132.611 394.263C132.55 393.734 132.683 393.264 133.009 392.852C133.225 392.579 133.494 392.384 133.814 392.266C134.128 392.143 134.455 392.103 134.793 392.145C135.122 392.188 135.425 392.319 135.703 392.54Z" fill="#353535"/>
<path d="M111.267 402L133.659 386.82L135.401 388.324L113.009 403.504L111.267 402Z" fill="#353535"/>
<path d="M124.177 382.476C124.56 382.836 124.76 383.282 124.776 383.814C124.793 384.346 124.622 384.803 124.262 385.187C123.902 385.57 123.456 385.77 122.924 385.786C122.392 385.803 121.934 385.632 121.551 385.272C121.168 384.912 120.968 384.466 120.952 383.934C120.935 383.402 121.106 382.944 121.466 382.561C121.704 382.307 121.988 382.135 122.317 382.045C122.64 381.949 122.969 381.936 123.303 382.006C123.626 382.076 123.918 382.233 124.177 382.476Z" fill="#353535"/>
<path d="M118.74 377.091C119.107 377.466 119.288 377.92 119.283 378.453C119.277 378.985 119.087 379.435 118.711 379.803C118.336 380.17 117.882 380.351 117.349 380.346C116.817 380.34 116.367 380.15 115.999 379.774C115.632 379.399 115.451 378.945 115.456 378.412C115.462 377.88 115.652 377.43 116.028 377.062C116.276 376.819 116.567 376.659 116.899 376.582C117.227 376.5 117.555 376.501 117.886 376.585C118.207 376.668 118.491 376.837 118.74 377.091Z" fill="#353535"/>
<path d="M93.3105 383.414L117.428 371.16L118.968 372.87L94.8502 385.124L93.3105 383.414Z" fill="#353535"/>
<path d="M101.582 356.553C101.891 356.978 102.004 357.453 101.92 357.979C101.837 358.505 101.583 358.922 101.158 359.231C100.732 359.54 100.257 359.653 99.7311 359.57C99.2054 359.486 98.788 359.232 98.4791 358.807C98.1702 358.382 98.0573 357.906 98.1406 357.38C98.2239 356.855 98.4781 356.437 98.9033 356.128C99.1849 355.924 99.4956 355.808 99.8356 355.78C100.171 355.747 100.497 355.796 100.811 355.927C101.116 356.057 101.373 356.265 101.582 356.553Z" fill="#353535"/>
<path d="M97.2501 350.244C97.541 350.682 97.6338 351.162 97.5286 351.683C97.4233 352.205 97.1519 352.612 96.7141 352.902C96.2763 353.193 95.7965 353.286 95.2747 353.181C94.7529 353.076 94.3465 352.804 94.0557 352.366C93.7648 351.929 93.672 351.449 93.7773 350.927C93.8825 350.405 94.154 349.999 94.5917 349.708C94.8816 349.515 95.1969 349.412 95.5377 349.399C95.8746 349.38 96.1975 349.443 96.5066 349.587C96.8058 349.729 97.0536 349.948 97.2501 350.244Z" fill="#353535"/>
<path d="M71.0867 351.69L97.073 344.172L98.2651 346.14L72.2787 353.658L71.0867 351.69Z" fill="#353535"/>
<path d="M89.3976 337.111C89.6508 337.571 89.7031 338.057 89.5546 338.568C89.4061 339.079 89.1015 339.462 88.641 339.715C88.1804 339.968 87.6945 340.02 87.1833 339.872C86.6721 339.723 86.2899 339.419 86.0368 338.958C85.7836 338.498 85.7312 338.012 85.8797 337.501C86.0283 336.989 86.3328 336.607 86.7934 336.354C87.0983 336.186 87.4212 336.11 87.7619 336.125C88.0992 336.135 88.4157 336.224 88.7116 336.394C88.9979 336.56 89.2265 336.799 89.3976 337.111Z" fill="#353535"/>
<path d="M85.8907 330.309C86.1244 330.78 86.1563 331.267 85.9865 331.772C85.8167 332.276 85.4964 332.645 85.0257 332.879C84.5549 333.113 84.0673 333.145 83.5627 332.975C83.0582 332.805 82.6891 332.485 82.4554 332.014C82.2217 331.543 82.1898 331.056 82.3596 330.551C82.5294 330.047 82.8496 329.678 83.3204 329.444C83.6321 329.289 83.9579 329.227 84.2976 329.256C84.6343 329.279 84.9468 329.382 85.2353 329.564C85.5143 329.742 85.7328 329.991 85.8907 330.309Z" fill="#353535"/>
<path d="M59.7523 328.464L86.4759 324.263L87.4119 326.365L60.6883 330.566L59.7523 328.464Z" fill="#353535"/>
<path d="M75.9194 305.474C76.0818 305.974 76.0422 306.461 75.8005 306.935C75.5588 307.409 75.188 307.728 74.6882 307.89C74.1883 308.052 73.7013 308.013 73.2269 307.771C72.7526 307.529 72.4343 307.159 72.2719 306.659C72.1094 306.159 72.1491 305.672 72.3908 305.198C72.6324 304.723 73.0032 304.405 73.503 304.243C73.834 304.135 74.1654 304.121 74.4972 304.2C74.8268 304.272 75.1211 304.419 75.3799 304.641C75.6298 304.858 75.8096 305.136 75.9194 305.474Z" fill="#353535"/>
<path d="M73.7491 298.135C73.8905 298.642 73.8305 299.127 73.5691 299.59C73.3078 300.054 72.924 300.357 72.4178 300.498C71.9116 300.639 71.4266 300.579 70.9628 300.318C70.4991 300.057 70.1965 299.673 70.0552 299.167C69.9138 298.66 69.9738 298.176 70.2352 297.712C70.4965 297.248 70.8803 296.945 71.3865 296.804C71.7217 296.71 72.0534 296.71 72.3816 296.803C72.7079 296.889 72.9957 297.048 73.245 297.281C73.4856 297.508 73.6536 297.793 73.7491 298.135Z" fill="#353535"/>
<path d="M48.4194 291.426L75.457 292.306L75.9825 294.546L48.9449 293.666L48.4194 291.426Z" fill="#353535"/>
<path d="M70.3394 283.218C70.4379 283.734 70.3375 284.213 70.0383 284.653C69.7391 285.093 69.3313 285.363 68.8151 285.461C68.2988 285.56 67.8206 285.459 67.3803 285.16C66.94 284.861 66.6706 284.453 66.5721 283.937C66.4736 283.421 66.574 282.942 66.8732 282.502C67.1724 282.062 67.5802 281.792 68.0964 281.694C68.4383 281.629 68.7689 281.656 69.0882 281.776C69.4061 281.889 69.6796 282.072 69.9086 282.324C70.1293 282.571 70.2729 282.869 70.3394 283.218Z" fill="#353535"/>
<path d="M69.1059 275.666C69.1827 276.186 69.0624 276.659 68.745 277.087C68.4276 277.514 68.009 277.766 67.489 277.843C66.9691 277.92 66.4954 277.799 66.0681 277.482C65.6407 277.165 65.3886 276.746 65.3119 276.226C65.2351 275.706 65.3554 275.232 65.6728 274.805C65.9902 274.378 66.4088 274.126 66.9288 274.049C67.273 273.998 67.6022 274.039 67.9162 274.172C68.2292 274.298 68.4947 274.492 68.7129 274.755C68.9231 275.011 69.0541 275.314 69.1059 275.666Z" fill="#353535"/>
<path d="M44.817 265.834L71.531 270.096L71.7715 272.385L45.0575 268.123L44.817 265.834Z" fill="#353535"/>
<path d="M67.2319 249.028C67.2319 249.554 67.0436 250.005 66.6672 250.381C66.2908 250.758 65.8398 250.946 65.3142 250.946C64.7887 250.946 64.3377 250.758 63.9613 250.381C63.5848 250.005 63.3966 249.554 63.3966 249.028C63.3966 248.503 63.5848 248.052 63.9613 247.675C64.3377 247.299 64.7887 247.111 65.3142 247.111C65.6623 247.111 65.9819 247.199 66.273 247.377C66.5642 247.547 66.7986 247.778 66.9762 248.069C67.1466 248.353 67.2319 248.673 67.2319 249.028Z" fill="#353535"/>
<path d="M67.5009 241.315C67.4788 241.84 67.2719 242.282 66.8801 242.643C66.4882 243.003 66.0297 243.172 65.5046 243.15C64.9795 243.128 64.5368 242.921 64.1765 242.529C63.8161 242.138 63.647 241.679 63.669 241.154C63.691 240.629 63.8979 240.186 64.2898 239.826C64.6816 239.466 65.1401 239.296 65.6652 239.318C66.0129 239.333 66.3285 239.435 66.612 239.625C66.8958 239.807 67.1203 240.048 67.2856 240.346C67.444 240.637 67.5157 240.96 67.5009 241.315Z" fill="#353535"/>
<path d="M45.4845 227.106L70.9266 236.298L70.734 238.591L45.2919 229.399L45.4845 227.106Z" fill="#353535"/>
<path d="M68.868 226.073C68.8021 226.595 68.5588 227.019 68.1382 227.345C67.7176 227.671 67.2465 227.801 66.7251 227.735C66.2037 227.67 65.7798 227.426 65.4536 227.006C65.1273 226.585 64.9971 226.114 65.063 225.593C65.1289 225.071 65.3721 224.647 65.7928 224.321C66.2134 223.995 66.6844 223.865 67.2059 223.93C67.5511 223.974 67.8571 224.102 68.1237 224.315C68.3913 224.52 68.5948 224.779 68.7345 225.09C68.868 225.393 68.9125 225.721 68.868 226.073Z" fill="#353535"/>
<path d="M70.0283 218.51C69.9407 219.028 69.6799 219.442 69.246 219.75C68.8121 220.058 68.336 220.169 67.8178 220.081C67.2996 219.994 66.8863 219.733 66.5779 219.299C66.2695 218.865 66.1592 218.389 66.2468 217.871C66.3345 217.352 66.5953 216.939 67.0292 216.631C67.4631 216.322 67.9392 216.212 68.4574 216.3C68.8005 216.358 69.1008 216.499 69.3583 216.722C69.617 216.939 69.8096 217.205 69.9361 217.522C70.0568 217.831 70.0876 218.16 70.0283 218.51Z" fill="#353535"/>
<path d="M49.9663 201.654L74.0557 213.963L73.5773 216.214L49.4879 203.905L49.9663 201.654Z" fill="#353535"/>
<path d="M76.5592 192.557C76.3968 193.057 76.0784 193.428 75.6041 193.669C75.1298 193.911 74.6427 193.951 74.1429 193.788C73.643 193.626 73.2723 193.308 73.0306 192.833C72.7889 192.359 72.7493 191.872 72.9117 191.372C73.0741 190.872 73.3924 190.501 73.8668 190.26C74.3411 190.018 74.8282 189.978 75.328 190.141C75.659 190.248 75.9355 190.432 76.1576 190.69C76.3819 190.943 76.5334 191.234 76.6123 191.566C76.6866 191.889 76.6689 192.219 76.5592 192.557Z" fill="#353535"/>
<path d="M79.1168 185.345C78.9336 185.837 78.6 186.194 78.116 186.416C77.632 186.638 77.1436 186.657 76.651 186.474C76.1584 186.29 75.8013 185.957 75.5797 185.473C75.3581 184.989 75.3389 184.5 75.5221 184.008C75.7053 183.515 76.0389 183.158 76.5229 182.936C77.007 182.715 77.4953 182.696 77.9879 182.879C78.3141 183 78.5827 183.195 78.7937 183.463C79.0072 183.724 79.1465 184.022 79.2114 184.357C79.2721 184.683 79.2406 185.012 79.1168 185.345Z" fill="#353535"/>
<path d="M62.5686 165.028L83.9249 181.632L83.0332 183.754L61.6768 167.149L62.5686 165.028Z" fill="#353535"/>
<path d="M85.1263 171.272C84.9026 171.748 84.5402 172.076 84.0394 172.256C83.5385 172.436 83.0503 172.415 82.5747 172.191C82.0992 171.967 81.7713 171.605 81.5909 171.104C81.4106 170.603 81.4323 170.115 81.6561 169.639C81.8799 169.164 82.2422 168.836 82.7431 168.655C83.2439 168.475 83.7322 168.497 84.2077 168.721C84.5226 168.869 84.774 169.085 84.9619 169.37C85.1528 169.648 85.2666 169.957 85.3032 170.296C85.3365 170.625 85.2775 170.951 85.1263 171.272Z" fill="#353535"/>
<path d="M88.5677 164.437C88.3242 164.903 87.9485 165.215 87.4405 165.375C86.9325 165.534 86.4456 165.492 85.9799 165.248C85.5141 165.005 85.2016 164.629 85.0424 164.121C84.8833 163.613 84.9254 163.126 85.1689 162.66C85.4124 162.194 85.7881 161.882 86.2961 161.723C86.8041 161.564 87.291 161.606 87.7567 161.849C88.0651 162.011 88.3072 162.237 88.483 162.53C88.6621 162.815 88.7629 163.129 88.7853 163.469C88.8048 163.8 88.7322 164.122 88.5677 164.437Z" fill="#353535"/>
<path d="M74.6963 142.207L93.8032 161.357L92.6526 163.35L73.5458 144.199L74.6963 142.207Z" fill="#353535"/>
<path d="M102.799 141.772C102.49 142.198 102.073 142.452 101.547 142.535C101.021 142.618 100.545 142.506 100.12 142.197C99.6951 141.888 99.4409 141.47 99.3576 140.945C99.2743 140.419 99.3871 139.943 99.6961 139.518C100.005 139.093 100.422 138.839 100.948 138.755C101.474 138.672 101.949 138.785 102.375 139.094C102.656 139.299 102.863 139.558 102.994 139.873C103.129 140.182 103.183 140.507 103.156 140.847C103.126 141.177 103.008 141.485 102.799 141.772Z" fill="#353535"/>
<path d="M107.46 135.703C107.134 136.115 106.706 136.352 106.177 136.413C105.648 136.474 105.178 136.341 104.766 136.015C104.354 135.689 104.118 135.261 104.056 134.732C103.995 134.203 104.128 133.733 104.454 133.321C104.781 132.909 105.208 132.673 105.737 132.611C106.266 132.55 106.736 132.683 107.148 133.009C107.421 133.226 107.616 133.494 107.734 133.814C107.857 134.128 107.897 134.455 107.855 134.793C107.812 135.122 107.681 135.425 107.46 135.703Z" fill="#353535"/>
<path d="M97.9999 111.267L113.18 133.659L111.676 135.401L96.4963 113.009L97.9999 111.267Z" fill="#353535"/>
<path d="M117.524 124.177C117.164 124.56 116.718 124.76 116.186 124.776C115.654 124.793 115.197 124.622 114.813 124.262C114.43 123.902 114.23 123.456 114.214 122.924C114.197 122.392 114.368 121.934 114.728 121.551C115.088 121.168 115.534 120.968 116.066 120.952C116.598 120.935 117.056 121.106 117.439 121.466C117.693 121.704 117.865 121.988 117.955 122.317C118.051 122.64 118.064 122.969 117.994 123.303C117.924 123.626 117.767 123.918 117.524 124.177Z" fill="#353535"/>
<path d="M122.909 118.74C122.534 119.107 122.08 119.288 121.547 119.283C121.015 119.277 120.565 119.087 120.197 118.711C119.83 118.336 119.649 117.882 119.654 117.349C119.66 116.817 119.85 116.367 120.226 115.999C120.601 115.632 121.055 115.451 121.588 115.456C122.12 115.462 122.57 115.652 122.938 116.028C123.181 116.276 123.341 116.567 123.418 116.899C123.5 117.226 123.499 117.555 123.415 117.886C123.332 118.207 123.163 118.491 122.909 118.74Z" fill="#353535"/>
<path d="M116.586 93.3105L128.84 117.428L127.13 118.968L114.876 94.8502L116.586 93.3105Z" fill="#353535"/>
<path d="M143.447 101.582C143.022 101.891 142.547 102.004 142.021 101.92C141.495 101.837 141.078 101.583 140.769 101.158C140.46 100.732 140.347 100.257 140.43 99.7311C140.514 99.2054 140.768 98.788 141.193 98.4791C141.618 98.1702 142.094 98.0573 142.62 98.1406C143.145 98.2239 143.563 98.4781 143.872 98.9033C144.076 99.1849 144.192 99.4956 144.22 99.8356C144.253 100.171 144.204 100.497 144.073 100.811C143.943 101.116 143.735 101.373 143.447 101.582Z" fill="#353535"/>
<path d="M149.756 97.2501C149.318 97.5409 148.839 97.6337 148.317 97.5285C147.795 97.4233 147.388 97.1518 147.098 96.7141C146.807 96.2763 146.714 95.7965 146.819 95.2747C146.924 94.7528 147.196 94.3465 147.634 94.0556C148.071 93.7648 148.551 93.672 149.073 93.7772C149.595 93.8824 150.001 94.1539 150.292 94.5917C150.485 94.8815 150.588 95.1969 150.601 95.5377C150.62 95.8745 150.557 96.1975 150.413 96.5065C150.271 96.8057 150.052 97.0536 149.756 97.2501Z" fill="#353535"/>
<path d="M148.31 71.0867L155.828 97.073L153.859 98.2651L146.342 72.2787L148.31 71.0867Z" fill="#353535"/>
<path d="M162.889 89.3976C162.429 89.6508 161.943 89.7031 161.432 89.5546C160.921 89.4061 160.538 89.1015 160.285 88.641C160.032 88.1804 159.98 87.6946 160.128 87.1833C160.277 86.6721 160.581 86.2899 161.042 86.0368C161.502 85.7836 161.988 85.7312 162.499 85.8797C163.011 86.0283 163.393 86.3328 163.646 86.7934C163.814 87.0983 163.89 87.4212 163.875 87.7619C163.865 88.0992 163.776 88.4157 163.606 88.7116C163.44 88.9979 163.201 89.2265 162.889 89.3976Z" fill="#353535"/>
<path d="M169.691 85.8907C169.22 86.1243 168.733 86.1563 168.228 85.9865C167.724 85.8167 167.355 85.4964 167.121 85.0257C166.887 84.5549 166.855 84.0673 167.025 83.5627C167.195 83.0582 167.515 82.6891 167.986 82.4554C168.457 82.2217 168.944 82.1898 169.449 82.3596C169.953 82.5294 170.322 82.8496 170.556 83.3204C170.711 83.6321 170.774 83.9579 170.744 84.2976C170.721 84.6342 170.618 84.9468 170.436 85.2353C170.258 85.5143 170.009 85.7328 169.691 85.8907Z" fill="#353535"/>
<path d="M171.536 59.7523L175.737 86.476L173.635 87.4119L169.434 60.6883L171.536 59.7523Z" fill="#353535"/>
<path d="M194.526 75.9194C194.026 76.0818 193.539 76.0422 193.065 75.8005C192.591 75.5588 192.272 75.1881 192.11 74.6882C191.947 74.1884 191.987 73.7013 192.229 73.227C192.47 72.7527 192.841 72.4343 193.341 72.2719C193.841 72.1095 194.328 72.1491 194.802 72.3908C195.277 72.6325 195.595 73.0032 195.757 73.5031C195.865 73.8341 195.879 74.1654 195.8 74.4973C195.728 74.8269 195.581 75.1211 195.359 75.38C195.142 75.6299 194.864 75.8097 194.526 75.9194Z" fill="#353535"/>
<path d="M201.865 73.7491C201.358 73.8904 200.873 73.8304 200.41 73.5691C199.946 73.3078 199.643 72.924 199.502 72.4178C199.361 71.9116 199.421 71.4266 199.682 70.9628C199.943 70.4991 200.327 70.1965 200.833 70.0552C201.339 69.9138 201.824 69.9738 202.288 70.2351C202.752 70.4965 203.055 70.8802 203.196 71.3865C203.29 71.7216 203.29 72.0533 203.197 72.3816C203.111 72.7079 202.952 72.9957 202.719 73.245C202.492 73.4856 202.207 73.6536 201.865 73.7491Z" fill="#353535"/>
<path d="M208.574 48.4194L207.694 75.457L205.454 75.9825L206.334 48.9449L208.574 48.4194Z" fill="#353535"/>
<path d="M216.782 70.3394C216.266 70.4379 215.787 70.3375 215.347 70.0383C214.907 69.7391 214.637 69.3313 214.539 68.8151C214.44 68.2988 214.541 67.8205 214.84 67.3803C215.139 66.94 215.547 66.6706 216.063 66.5721C216.579 66.4736 217.058 66.574 217.498 66.8732C217.938 67.1724 218.208 67.5802 218.306 68.0964C218.371 68.4383 218.344 68.7688 218.224 69.0881C218.111 69.4061 217.928 69.6796 217.676 69.9086C217.429 70.1292 217.131 70.2729 216.782 70.3394Z" fill="#353535"/>
<path d="M224.334 69.1059C223.814 69.1827 223.341 69.0624 222.913 68.745C222.486 68.4276 222.234 68.009 222.157 67.489C222.08 66.9691 222.201 66.4955 222.518 66.0681C222.835 65.6407 223.254 65.3886 223.774 65.3119C224.294 65.2351 224.768 65.3554 225.195 65.6728C225.622 65.9902 225.874 66.4088 225.951 66.9288C226.002 67.2731 225.961 67.6022 225.828 67.9162C225.702 68.2292 225.508 68.4948 225.245 68.7129C224.989 68.9231 224.686 69.0541 224.334 69.1059Z" fill="#353535"/>
<path d="M234.166 44.8169L229.904 71.531L227.615 71.7715L231.877 45.0575L234.166 44.8169Z" fill="#353535"/>
<path d="M251.033 67.2318C250.508 67.2318 250.057 67.0436 249.68 66.6672C249.304 66.2908 249.116 65.8398 249.116 65.3142C249.116 64.7886 249.304 64.3376 249.68 63.9612C250.057 63.5848 250.508 63.3966 251.033 63.3966C251.559 63.3966 252.01 63.5848 252.386 63.9612C252.763 64.3376 252.951 64.7886 252.951 65.3142C252.951 65.6622 252.862 65.9818 252.685 66.273C252.514 66.5642 252.283 66.7986 251.992 66.9761C251.708 67.1466 251.388 67.2318 251.033 67.2318Z" fill="#353535"/>
<path d="M258.685 67.5009C258.16 67.4788 257.718 67.2719 257.357 66.8801C256.997 66.4882 256.828 66.0297 256.85 65.5046C256.872 64.9795 257.079 64.5368 257.471 64.1765C257.862 63.8161 258.321 63.647 258.846 63.669C259.371 63.691 259.814 63.8979 260.174 64.2898C260.534 64.6816 260.704 65.1401 260.682 65.6652C260.667 66.0129 260.565 66.3285 260.375 66.612C260.193 66.8958 259.952 67.1203 259.654 67.2856C259.363 67.444 259.04 67.5157 258.685 67.5009Z" fill="#353535"/>
<path d="M272.894 45.4845L263.702 70.9266L261.409 70.734L270.601 45.2919L272.894 45.4845Z" fill="#353535"/>
<path d="M273.927 68.868C273.405 68.8021 272.981 68.5589 272.655 68.1382C272.329 67.7176 272.199 67.2466 272.265 66.7251C272.33 66.2037 272.574 65.7799 272.994 65.4536C273.415 65.1273 273.886 64.9971 274.407 65.063C274.929 65.1289 275.353 65.3721 275.679 65.7928C276.005 66.2134 276.135 66.6845 276.07 67.2059C276.026 67.5511 275.898 67.8571 275.685 68.1237C275.48 68.3913 275.221 68.5949 274.91 68.7345C274.607 68.868 274.279 68.9125 273.927 68.868Z" fill="#353535"/>
<path d="M281.49 70.0284C280.972 69.9407 280.558 69.68 280.25 69.246C279.942 68.8121 279.831 68.336 279.919 67.8178C280.007 67.2996 280.267 66.8863 280.701 66.578C281.135 66.2696 281.611 66.1592 282.129 66.2469C282.648 66.3345 283.061 66.5953 283.369 67.0292C283.678 67.4632 283.788 67.9392 283.7 68.4574C283.642 68.8006 283.502 69.1009 283.278 69.3584C283.061 69.6171 282.795 69.8097 282.478 69.9362C282.169 70.0569 281.84 70.0876 281.49 70.0284Z" fill="#353535"/>
<path d="M298.346 49.9663L286.037 74.0557L283.786 73.5773L296.095 49.4879L298.346 49.9663Z" fill="#353535"/>
<path d="M307.443 76.5592C306.943 76.3968 306.572 76.0784 306.331 75.6041C306.089 75.1298 306.049 74.6427 306.212 74.1429C306.374 73.643 306.692 73.2723 307.167 73.0306C307.641 72.7889 308.128 72.7493 308.628 72.9117C309.128 73.0741 309.499 73.3925 309.74 73.8668C309.982 74.3411 310.022 74.8282 309.859 75.328C309.752 75.659 309.568 75.9355 309.31 76.1576C309.057 76.3819 308.766 76.5334 308.434 76.6123C308.111 76.6867 307.781 76.6689 307.443 76.5592Z" fill="#353535"/>
<path d="M314.655 79.1168C314.163 78.9336 313.806 78.6 313.584 78.116C313.362 77.632 313.343 77.1436 313.526 76.651C313.71 76.1584 314.043 75.8013 314.527 75.5797C315.011 75.3581 315.5 75.3389 315.992 75.5221C316.485 75.7053 316.842 76.0389 317.063 76.523C317.285 77.007 317.304 77.4953 317.121 77.9879C317 78.3141 316.805 78.5827 316.537 78.7937C316.276 79.0072 315.978 79.1465 315.643 79.2114C315.317 79.2721 314.988 79.2406 314.655 79.1168Z" fill="#353535"/>
<path d="M334.972 62.5685L318.368 83.9249L316.246 83.0332L332.851 61.6768L334.972 62.5685Z" fill="#353535"/>
<path d="M328.728 85.1263C328.252 84.9026 327.924 84.5402 327.744 84.0394C327.564 83.5385 327.585 83.0503 327.809 82.5747C328.033 82.0992 328.395 81.7713 328.896 81.5909C329.397 81.4106 329.885 81.4323 330.361 81.6561C330.836 81.8799 331.164 82.2422 331.345 82.7431C331.525 83.2439 331.503 83.7322 331.279 84.2077C331.131 84.5226 330.915 84.774 330.63 84.9619C330.352 85.1528 330.043 85.2666 329.704 85.3032C329.375 85.3365 329.049 85.2775 328.728 85.1263Z" fill="#353535"/>
<path d="M335.563 88.5677C335.097 88.3242 334.785 87.9485 334.625 87.4405C334.466 86.9325 334.508 86.4456 334.752 85.9799C334.995 85.5141 335.371 85.2016 335.879 85.0425C336.387 84.8833 336.874 84.9254 337.34 85.1689C337.805 85.4124 338.118 85.7881 338.277 86.2961C338.436 86.8041 338.394 87.291 338.151 87.7567C337.989 88.0651 337.763 88.3072 337.47 88.483C337.184 88.6621 336.871 88.7629 336.531 88.7853C336.2 88.8048 335.878 88.7322 335.563 88.5677Z" fill="#353535"/>
<path d="M357.793 74.6963L338.643 93.8032L336.65 92.6526L355.801 73.5458L357.793 74.6963Z" fill="#353535"/>
<path d="M358.227 102.799C357.802 102.49 357.548 102.073 357.465 101.547C357.382 101.021 357.494 100.545 357.803 100.12C358.112 99.6951 358.53 99.4408 359.055 99.3576C359.581 99.2743 360.057 99.3871 360.482 99.696C360.907 100.005 361.161 100.422 361.244 100.948C361.328 101.474 361.215 101.949 360.906 102.375C360.701 102.656 360.442 102.862 360.127 102.994C359.818 103.129 359.493 103.183 359.153 103.156C358.823 103.126 358.515 103.008 358.227 102.799Z" fill="#353535"/>
<path d="M364.297 107.46C363.885 107.134 363.648 106.706 363.587 106.177C363.526 105.648 363.659 105.178 363.985 104.766C364.312 104.354 364.739 104.118 365.268 104.056C365.797 103.995 366.267 104.128 366.679 104.454C367.091 104.781 367.327 105.208 367.389 105.737C367.45 106.266 367.317 106.736 366.991 107.148C366.775 107.421 366.506 107.616 366.186 107.734C365.872 107.857 365.545 107.897 365.207 107.855C364.878 107.812 364.575 107.681 364.297 107.46Z" fill="#353535"/>
<path d="M388.733 97.9999L366.341 113.18L364.599 111.676L386.991 96.4963L388.733 97.9999Z" fill="#353535"/>
<path d="M375.823 117.524C375.44 117.164 375.24 116.718 375.224 116.186C375.207 115.654 375.378 115.197 375.738 114.813C376.098 114.43 376.544 114.23 377.076 114.214C377.608 114.197 378.066 114.368 378.449 114.728C378.832 115.088 379.032 115.534 379.048 116.066C379.065 116.598 378.894 117.056 378.534 117.439C378.296 117.693 378.012 117.865 377.683 117.955C377.36 118.051 377.031 118.064 376.697 117.994C376.373 117.924 376.082 117.767 375.823 117.524Z" fill="#353535"/>
<path d="M381.26 122.909C380.893 122.534 380.712 122.08 380.717 121.547C380.723 121.015 380.913 120.565 381.289 120.197C381.664 119.83 382.118 119.649 382.651 119.654C383.183 119.66 383.633 119.85 384.001 120.226C384.368 120.601 384.549 121.055 384.544 121.588C384.538 122.12 384.348 122.57 383.972 122.938C383.724 123.181 383.433 123.341 383.101 123.418C382.773 123.5 382.445 123.499 382.114 123.415C381.793 123.332 381.509 123.163 381.26 122.909Z" fill="#353535"/>
<path d="M406.69 116.586L382.572 128.84L381.032 127.13L405.15 114.876L406.69 116.586Z" fill="#353535"/>
<path d="M398.418 143.447C398.109 143.022 397.996 142.547 398.08 142.021C398.163 141.495 398.417 141.078 398.842 140.769C399.268 140.46 399.743 140.347 400.269 140.43C400.795 140.514 401.212 140.768 401.521 141.193C401.83 141.618 401.943 142.094 401.859 142.62C401.776 143.145 401.522 143.563 401.097 143.872C400.815 144.076 400.504 144.192 400.164 144.22C399.829 144.253 399.503 144.204 399.189 144.073C398.884 143.943 398.627 143.735 398.418 143.447Z" fill="#353535"/>
<path d="M402.75 149.756C402.459 149.318 402.366 148.839 402.471 148.317C402.577 147.795 402.848 147.388 403.286 147.098C403.724 146.807 404.204 146.714 404.725 146.819C405.247 146.924 405.654 147.196 405.944 147.634C406.235 148.071 406.328 148.551 406.223 149.073C406.118 149.595 405.846 150.001 405.408 150.292C405.118 150.485 404.803 150.588 404.462 150.601C404.125 150.62 403.803 150.557 403.493 150.413C403.194 150.271 402.946 150.052 402.75 149.756Z" fill="#353535"/>
<path d="M428.913 148.31L402.927 155.828L401.735 153.86L427.721 146.342L428.913 148.31Z" fill="#353535"/>
<path d="M410.602 162.889C410.349 162.429 410.297 161.943 410.445 161.432C410.594 160.921 410.898 160.538 411.359 160.285C411.819 160.032 412.305 159.98 412.817 160.128C413.328 160.277 413.71 160.581 413.963 161.042C414.216 161.502 414.269 161.988 414.12 162.499C413.972 163.011 413.667 163.393 413.207 163.646C412.902 163.814 412.579 163.89 412.238 163.875C411.901 163.865 411.584 163.776 411.288 163.606C411.002 163.44 410.773 163.201 410.602 162.889Z" fill="#353535"/>
<path d="M414.109 169.691C413.876 169.22 413.844 168.733 414.013 168.228C414.183 167.724 414.504 167.355 414.974 167.121C415.445 166.887 415.933 166.855 416.437 167.025C416.942 167.195 417.311 167.515 417.545 167.986C417.778 168.457 417.81 168.944 417.64 169.449C417.471 169.953 417.15 170.322 416.68 170.556C416.368 170.711 416.042 170.773 415.702 170.744C415.366 170.721 415.053 170.618 414.765 170.436C414.486 170.258 414.267 170.009 414.109 169.691Z" fill="#353535"/>
<path d="M440.248 171.536L413.524 175.737L412.588 173.635L439.312 169.434L440.248 171.536Z" fill="#353535"/>
<path d="M424.081 194.526C423.918 194.026 423.958 193.539 424.2 193.065C424.441 192.591 424.812 192.272 425.312 192.11C425.812 191.948 426.299 191.987 426.773 192.229C427.247 192.471 427.566 192.841 427.728 193.341C427.891 193.841 427.851 194.328 427.609 194.802C427.368 195.277 426.997 195.595 426.497 195.757C426.166 195.865 425.835 195.879 425.503 195.8C425.173 195.728 424.879 195.581 424.62 195.359C424.37 195.142 424.19 194.864 424.081 194.526Z" fill="#353535"/>
<path d="M426.251 201.865C426.11 201.358 426.17 200.873 426.431 200.41C426.692 199.946 427.076 199.643 427.582 199.502C428.088 199.361 428.573 199.421 429.037 199.682C429.501 199.943 429.804 200.327 429.945 200.833C430.086 201.34 430.026 201.824 429.765 202.288C429.504 202.752 429.12 203.055 428.614 203.196C428.278 203.29 427.947 203.29 427.618 203.197C427.292 203.111 427.004 202.952 426.755 202.719C426.514 202.492 426.346 202.207 426.251 201.865Z" fill="#353535"/>
<path d="M451.581 208.574L424.543 207.694L424.017 205.454L451.055 206.334L451.581 208.574Z" fill="#353535"/>
<path d="M429.661 216.782C429.562 216.266 429.662 215.787 429.962 215.347C430.261 214.907 430.669 214.637 431.185 214.539C431.701 214.44 432.179 214.541 432.62 214.84C433.06 215.139 433.329 215.547 433.428 216.063C433.526 216.579 433.426 217.058 433.127 217.498C432.828 217.938 432.42 218.208 431.904 218.306C431.562 218.371 431.231 218.344 430.912 218.224C430.594 218.111 430.32 217.928 430.091 217.676C429.871 217.429 429.727 217.131 429.661 216.782Z" fill="#353535"/>
<path d="M430.894 224.334C430.817 223.814 430.938 223.341 431.255 222.913C431.572 222.486 431.991 222.234 432.511 222.157C433.031 222.08 433.504 222.201 433.932 222.518C434.359 222.835 434.611 223.254 434.688 223.774C434.765 224.294 434.645 224.768 434.327 225.195C434.01 225.622 433.591 225.874 433.071 225.951C432.727 226.002 432.398 225.961 432.084 225.828C431.771 225.702 431.505 225.508 431.287 225.245C431.077 224.989 430.946 224.686 430.894 224.334Z" fill="#353535"/>
<path d="M455.183 234.166L428.469 229.904L428.228 227.615L454.942 231.877L455.183 234.166Z" fill="#353535"/>
<path d="M432.83 251.033C432.83 250.508 433.018 250.057 433.394 249.68C433.771 249.304 434.222 249.116 434.747 249.116C435.273 249.116 435.724 249.304 436.1 249.68C436.477 250.057 436.665 250.508 436.665 251.033C436.665 251.559 436.477 252.01 436.1 252.386C435.724 252.763 435.273 252.951 434.747 252.951C434.399 252.951 434.08 252.862 433.788 252.684C433.497 252.514 433.263 252.283 433.085 251.992C432.915 251.708 432.83 251.388 432.83 251.033Z" fill="#353535"/>
<path d="M432.499 258.685C432.521 258.16 432.728 257.717 433.12 257.357C433.512 256.997 433.97 256.827 434.495 256.849C435.021 256.871 435.463 257.078 435.824 257.47C436.184 257.862 436.353 258.321 436.331 258.846C436.309 259.371 436.102 259.814 435.71 260.174C435.318 260.534 434.86 260.703 434.335 260.681C433.987 260.667 433.672 260.565 433.388 260.375C433.104 260.193 432.88 259.952 432.715 259.654C432.556 259.363 432.484 259.04 432.499 258.685Z" fill="#353535"/>
<path d="M454.516 272.894L429.073 263.701L429.266 261.408L454.708 270.601L454.516 272.894Z" fill="#353535"/>
<path d="M431.132 273.926C431.198 273.404 431.442 272.981 431.862 272.654C432.283 272.328 432.754 272.198 433.275 272.264C433.797 272.33 434.221 272.573 434.547 272.993C434.873 273.414 435.003 273.885 434.937 274.406C434.872 274.928 434.628 275.352 434.208 275.678C433.787 276.004 433.316 276.135 432.795 276.069C432.449 276.025 432.143 275.897 431.877 275.684C431.609 275.479 431.406 275.22 431.266 274.909C431.132 274.606 431.088 274.278 431.132 273.926Z" fill="#353535"/>
<path d="M429.972 281.49C430.059 280.972 430.32 280.558 430.754 280.25C431.188 279.942 431.664 279.831 432.182 279.919C432.7 280.007 433.114 280.267 433.422 280.701C433.73 281.135 433.841 281.611 433.753 282.129C433.665 282.648 433.405 283.061 432.971 283.369C432.537 283.678 432.061 283.788 431.543 283.7C431.199 283.642 430.899 283.502 430.642 283.278C430.383 283.061 430.19 282.795 430.064 282.478C429.943 282.169 429.912 281.84 429.972 281.49Z" fill="#353535"/>
<path d="M450.034 298.346L425.944 286.037L426.423 283.786L450.512 296.095L450.034 298.346Z" fill="#353535"/>
<path d="M423.441 307.443C423.603 306.943 423.922 306.572 424.396 306.331C424.87 306.089 425.357 306.049 425.857 306.212C426.357 306.374 426.728 306.692 426.969 307.167C427.211 307.641 427.251 308.128 427.088 308.628C426.926 309.128 426.608 309.499 426.133 309.74C425.659 309.982 425.172 310.022 424.672 309.859C424.341 309.752 424.064 309.568 423.842 309.31C423.618 309.057 423.467 308.766 423.388 308.434C423.313 308.111 423.331 307.781 423.441 307.443Z" fill="#353535"/>
<path d="M420.883 314.655C421.066 314.163 421.4 313.806 421.884 313.584C422.368 313.362 422.856 313.343 423.349 313.526C423.842 313.71 424.199 314.043 424.42 314.527C424.642 315.011 424.661 315.5 424.478 315.992C424.295 316.485 423.961 316.842 423.477 317.063C422.993 317.285 422.505 317.304 422.012 317.121C421.686 317 421.417 316.805 421.206 316.537C420.993 316.276 420.853 315.978 420.789 315.643C420.728 315.317 420.759 314.988 420.883 314.655Z" fill="#353535"/>
<path d="M437.431 334.972L416.075 318.368L416.967 316.246L438.323 332.851L437.431 334.972Z" fill="#353535"/>
<path d="M414.874 328.728C415.097 328.252 415.46 327.924 415.961 327.744C416.461 327.564 416.95 327.585 417.425 327.809C417.901 328.033 418.229 328.395 418.409 328.896C418.589 329.397 418.568 329.885 418.344 330.361C418.12 330.836 417.758 331.164 417.257 331.345C416.756 331.525 416.268 331.503 415.792 331.279C415.477 331.131 415.226 330.915 415.038 330.63C414.847 330.352 414.733 330.043 414.697 329.704C414.664 329.375 414.722 329.049 414.874 328.728Z" fill="#353535"/>
<path d="M411.432 335.563C411.676 335.097 412.051 334.785 412.559 334.625C413.067 334.466 413.554 334.508 414.02 334.752C414.486 334.995 414.798 335.371 414.957 335.879C415.117 336.387 415.075 336.874 414.831 337.34C414.588 337.805 414.212 338.118 413.704 338.277C413.196 338.436 412.709 338.394 412.243 338.151C411.935 337.989 411.693 337.763 411.517 337.47C411.338 337.184 411.237 336.871 411.215 336.531C411.195 336.2 411.268 335.878 411.432 335.563Z" fill="#353535"/>
<path d="M425.304 357.793L406.197 338.643L407.347 336.65L426.454 355.801L425.304 357.793Z" fill="#353535"/>
<path d="M397.201 358.228C397.51 357.802 397.927 357.548 398.453 357.465C398.979 357.382 399.455 357.494 399.88 357.803C400.305 358.112 400.559 358.53 400.642 359.055C400.726 359.581 400.613 360.057 400.304 360.482C399.995 360.907 399.578 361.161 399.052 361.245C398.526 361.328 398.051 361.215 397.625 360.906C397.344 360.701 397.137 360.442 397.006 360.127C396.871 359.818 396.817 359.493 396.844 359.153C396.874 358.823 396.992 358.515 397.201 358.228Z" fill="#353535"/>
<path d="M392.54 364.297C392.866 363.885 393.294 363.648 393.823 363.587C394.352 363.526 394.822 363.659 395.234 363.985C395.646 364.311 395.882 364.739 395.943 365.268C396.005 365.797 395.872 366.267 395.546 366.679C395.219 367.091 394.791 367.327 394.263 367.389C393.734 367.45 393.264 367.317 392.852 366.991C392.579 366.775 392.384 366.506 392.266 366.186C392.143 365.872 392.103 365.545 392.145 365.207C392.188 364.878 392.319 364.575 392.54 364.297Z" fill="#353535"/>
<path d="M402 388.733L386.82 366.341L388.324 364.599L403.504 386.991L402 388.733Z" fill="#353535"/>
<path d="M382.476 375.823C382.836 375.44 383.282 375.24 383.814 375.224C384.346 375.207 384.803 375.378 385.187 375.738C385.57 376.098 385.77 376.544 385.786 377.076C385.803 377.608 385.631 378.066 385.272 378.449C384.912 378.832 384.466 379.032 383.934 379.048C383.402 379.065 382.944 378.894 382.561 378.534C382.307 378.296 382.135 378.012 382.044 377.683C381.949 377.36 381.936 377.031 382.006 376.697C382.076 376.374 382.233 376.082 382.476 375.823Z" fill="#353535"/>
<path d="M377.091 381.26C377.466 380.893 377.92 380.712 378.453 380.717C378.985 380.723 379.435 380.913 379.803 381.289C380.17 381.664 380.351 382.118 380.346 382.651C380.34 383.183 380.15 383.633 379.774 384.001C379.399 384.368 378.945 384.549 378.412 384.544C377.88 384.538 377.43 384.348 377.062 383.972C376.819 383.724 376.659 383.433 376.582 383.101C376.5 382.774 376.501 382.445 376.585 382.114C376.668 381.793 376.837 381.509 377.091 381.26Z" fill="#353535"/>
<path d="M383.414 406.69L371.16 382.572L372.87 381.032L385.124 405.15L383.414 406.69Z" fill="#353535"/>
<path d="M356.553 398.418C356.978 398.109 357.453 397.996 357.979 398.08C358.505 398.163 358.922 398.417 359.231 398.842C359.54 399.268 359.653 399.743 359.57 400.269C359.486 400.795 359.232 401.212 358.807 401.521C358.382 401.83 357.906 401.943 357.38 401.859C356.855 401.776 356.437 401.522 356.128 401.097C355.924 400.815 355.808 400.504 355.78 400.164C355.747 399.829 355.796 399.503 355.927 399.189C356.057 398.884 356.265 398.627 356.553 398.418Z" fill="#353535"/>
<path d="M350.244 402.75C350.682 402.459 351.161 402.366 351.683 402.471C352.205 402.577 352.612 402.848 352.902 403.286C353.193 403.724 353.286 404.204 353.181 404.725C353.076 405.247 352.804 405.654 352.366 405.944C351.929 406.235 351.449 406.328 350.927 406.223C350.405 406.118 349.999 405.846 349.708 405.408C349.515 405.118 349.412 404.803 349.399 404.462C349.38 404.125 349.443 403.803 349.587 403.493C349.729 403.194 349.948 402.946 350.244 402.75Z" fill="#353535"/>
<path d="M351.69 428.913L344.172 402.927L346.14 401.735L353.658 427.721L351.69 428.913Z" fill="#353535"/>
<path d="M337.111 410.602C337.571 410.349 338.057 410.297 338.568 410.445C339.079 410.594 339.462 410.898 339.715 411.359C339.968 411.82 340.02 412.305 339.872 412.817C339.723 413.328 339.419 413.71 338.958 413.963C338.498 414.216 338.012 414.269 337.501 414.12C336.989 413.972 336.607 413.667 336.354 413.207C336.186 412.902 336.11 412.579 336.125 412.238C336.135 411.901 336.224 411.584 336.394 411.288C336.56 411.002 336.799 410.773 337.111 410.602Z" fill="#353535"/>
<path d="M330.309 414.109C330.78 413.876 331.267 413.844 331.772 414.013C332.276 414.183 332.645 414.504 332.879 414.974C333.113 415.445 333.145 415.933 332.975 416.437C332.805 416.942 332.485 417.311 332.014 417.545C331.543 417.778 331.056 417.81 330.551 417.64C330.047 417.471 329.678 417.15 329.444 416.68C329.289 416.368 329.226 416.042 329.256 415.702C329.279 415.366 329.382 415.053 329.564 414.765C329.742 414.486 329.991 414.267 330.309 414.109Z" fill="#353535"/>
<path d="M328.464 440.248L324.263 413.524L326.365 412.588L330.566 439.312L328.464 440.248Z" fill="#353535"/>
<path d="M305.474 424.081C305.974 423.918 306.461 423.958 306.935 424.199C307.409 424.441 307.728 424.812 307.89 425.312C308.052 425.812 308.013 426.299 307.771 426.773C307.529 427.247 307.159 427.566 306.659 427.728C306.159 427.891 305.672 427.851 305.198 427.609C304.723 427.368 304.405 426.997 304.243 426.497C304.135 426.166 304.121 425.835 304.2 425.503C304.272 425.173 304.419 424.879 304.641 424.62C304.858 424.37 305.136 424.19 305.474 424.081Z" fill="#353535"/>
<path d="M298.135 426.251C298.642 426.11 299.127 426.17 299.59 426.431C300.054 426.692 300.357 427.076 300.498 427.582C300.639 428.088 300.579 428.573 300.318 429.037C300.057 429.501 299.673 429.803 299.167 429.945C298.661 430.086 298.176 430.026 297.712 429.765C297.248 429.504 296.945 429.12 296.804 428.614C296.71 428.278 296.71 427.947 296.803 427.618C296.889 427.292 297.048 427.004 297.281 426.755C297.508 426.514 297.793 426.346 298.135 426.251Z" fill="#353535"/>
<path d="M291.426 451.581L292.306 424.543L294.546 424.018L293.666 451.055L291.426 451.581Z" fill="#353535"/>
<path d="M283.218 429.661C283.734 429.562 284.213 429.663 284.653 429.962C285.093 430.261 285.363 430.669 285.461 431.185C285.56 431.701 285.459 432.179 285.16 432.62C284.861 433.06 284.453 433.329 283.937 433.428C283.421 433.526 282.942 433.426 282.502 433.127C282.062 432.828 281.792 432.42 281.694 431.904C281.629 431.562 281.656 431.231 281.776 430.912C281.889 430.594 282.072 430.32 282.324 430.091C282.571 429.871 282.869 429.727 283.218 429.661Z" fill="#353535"/>
<path d="M275.666 430.894C276.186 430.817 276.659 430.938 277.087 431.255C277.514 431.572 277.766 431.991 277.843 432.511C277.92 433.031 277.799 433.505 277.482 433.932C277.165 434.359 276.746 434.611 276.226 434.688C275.706 434.765 275.232 434.645 274.805 434.327C274.378 434.01 274.126 433.591 274.049 433.071C273.998 432.727 274.039 432.398 274.172 432.084C274.298 431.771 274.492 431.505 274.755 431.287C275.011 431.077 275.314 430.946 275.666 430.894Z" fill="#353535"/>
<path d="M265.834 455.183L270.096 428.469L272.385 428.229L268.123 454.943L265.834 455.183Z" fill="#353535"/>
</svg>
