<svg width="1200" height="1200" viewBox="0 0 1200 1200" fill="none" xmlns="http://www.w3.org/2000/svg">
<path d="M592.482 1050.84L599.513 1024.72H601.815L594.783 1050.84H592.482Z" fill="#4D4F4E"/>
<path d="M567.569 1050.2L576.054 1024.52L578.352 1024.65L569.867 1050.33L567.569 1050.2Z" fill="#4D4F4E"/>
<path d="M542.385 1047.68L552.296 1022.51L554.583 1022.76L544.671 1047.93L542.385 1047.68Z" fill="#4D4F4E"/>
<path d="M517.381 1043.74L528.689 1019.17L530.957 1019.55L519.65 1044.13L517.381 1043.74Z" fill="#4D4F4E"/>
<path d="M492.638 1038.41L505.306 1014.51L507.549 1015.02L494.881 1038.92L492.638 1038.41Z" fill="#4D4F4E"/>
<path d="M468.232 1031.7L482.22 1008.55L484.432 1009.18L470.444 1032.34L468.232 1031.7Z" fill="#4D4F4E"/>
<path d="M444.241 1023.64L459.506 1001.3L461.678 1002.06L446.413 1024.4L444.241 1023.64Z" fill="#4D4F4E"/>
<path d="M420.741 1014.24L437.233 992.793L439.359 993.673L422.866 1015.12L420.741 1014.24Z" fill="#4D4F4E"/>
<path d="M397.804 1003.53L415.473 983.048L417.546 984.047L399.877 1004.53L397.804 1003.53Z" fill="#4D4F4E"/>
<path d="M375.503 991.561L394.293 972.099L396.307 973.212L377.517 992.674L375.503 991.561Z" fill="#4D4F4E"/>
<path d="M329.023 960.947L350.066 943.946L351.928 945.299L330.885 962.299L329.023 960.947Z" fill="#4D4F4E"/>
<path d="M309.219 945.185L331.181 929.391L332.964 930.846L311.001 946.64L309.219 945.185Z" fill="#4D4F4E"/>
<path d="M290.329 928.338L313.142 913.801L314.841 915.353L292.027 929.891L290.329 928.338Z" fill="#4D4F4E"/>
<path d="M272.413 910.458L296.006 897.223L297.615 898.868L274.022 912.104L272.413 910.458Z" fill="#4D4F4E"/>
<path d="M255.529 891.602L279.827 879.71L281.341 881.443L257.043 893.335L255.529 891.602Z" fill="#4D4F4E"/>
<path d="M239.728 871.829L264.654 861.318L266.069 863.133L241.142 873.644L239.728 871.829Z" fill="#4D4F4E"/>
<path d="M225.06 851.201L250.537 842.104L251.848 843.996L226.371 853.092L225.06 851.201Z" fill="#4D4F4E"/>
<path d="M211.573 829.783L237.519 822.129L238.722 824.091L212.775 831.745L211.573 829.783Z" fill="#4D4F4E"/>
<path d="M199.307 807.642L225.642 801.456L226.733 803.482L200.398 809.669L199.307 807.642Z" fill="#4D4F4E"/>
<path d="M188.303 784.849L214.943 780.148L215.918 782.233L189.278 786.933L188.303 784.849Z" fill="#4D4F4E"/>
<path d="M168.695 732.761L195.711 731.376L196.422 733.565L169.406 734.95L168.695 732.761Z" fill="#4D4F4E"/>
<path d="M161.936 708.369L188.988 708.501L189.575 710.726L162.524 710.594L161.936 708.369Z" fill="#4D4F4E"/>
<path d="M156.557 683.636L183.558 685.285L184.02 687.539L157.018 685.891L156.557 683.636Z" fill="#4D4F4E"/>
<path d="M152.572 658.641L179.439 661.801L179.774 664.078L152.907 660.918L152.572 658.641Z" fill="#4D4F4E"/>
<path d="M149.996 633.461L176.643 638.123L176.849 640.415L150.202 635.753L149.996 633.461Z" fill="#4D4F4E"/>
<path d="M148.835 608.177L175.179 614.325L175.256 616.625L148.912 610.477L148.835 608.177Z" fill="#4D4F4E"/>
<path d="M149.094 582.867L175.052 590.483L175 592.784L149.042 585.168L149.094 582.867Z" fill="#4D4F4E"/>
<path d="M150.771 557.612L176.261 566.671L176.081 568.965L150.591 559.906L150.771 557.612Z" fill="#4D4F4E"/>
<path d="M153.862 532.49L178.804 542.965L178.495 545.245L153.553 534.771L153.862 532.49Z" fill="#4D4F4E"/>
<path d="M158.357 507.582L182.672 519.438L182.236 521.697L157.92 509.841L158.357 507.582Z" fill="#4D4F4E"/>
<path d="M173.11 453.917L195.781 468.676L195.07 470.864L172.399 456.105L173.11 453.917Z" fill="#4D4F4E"/>
<path d="M181.98 430.211L203.787 446.218L202.955 448.363L181.147 432.356L181.98 430.211Z" fill="#4D4F4E"/>
<path d="M192.165 407.039L213.041 424.244L212.089 426.339L191.213 409.134L192.165 407.039Z" fill="#4D4F4E"/>
<path d="M203.634 384.476L223.512 402.824L222.444 404.862L202.566 386.514L203.634 384.476Z" fill="#4D4F4E"/>
<path d="M216.349 362.59L235.167 382.024L233.987 384L215.169 364.566L216.349 362.59Z" fill="#4D4F4E"/>
<path d="M230.272 341.453L247.971 361.911L246.682 363.817L228.983 343.359L230.272 341.453Z" fill="#4D4F4E"/>
<path d="M245.358 321.129L261.882 342.548L260.488 344.378L243.964 322.96L245.358 321.129Z" fill="#4D4F4E"/>
<path d="M261.56 301.683L276.857 323.994L275.362 325.744L260.065 303.433L261.56 301.683Z" fill="#4D4F4E"/>
<path d="M278.826 283.176L292.848 306.31L291.258 307.973L277.236 284.839L278.826 283.176Z" fill="#4D4F4E"/>
<path d="M297.104 265.666L309.806 289.55L308.125 291.122L295.423 267.238L297.104 265.666Z" fill="#4D4F4E"/>
<path d="M340.583 230.922L350.248 256.188L348.387 257.54L338.721 232.274L340.583 230.922Z" fill="#4D4F4E"/>
<path d="M361.693 216.957L369.927 242.725L367.992 243.971L359.758 218.203L361.693 216.957Z" fill="#4D4F4E"/>
<path d="M383.552 204.198L390.329 230.387L388.327 231.523L381.551 205.333L383.552 204.198Z" fill="#4D4F4E"/>
<path d="M406.093 192.684L411.39 219.212L409.328 220.234L404.031 193.706L406.093 192.684Z" fill="#4D4F4E"/>
<path d="M429.244 182.453L433.045 209.236L430.929 210.141L427.128 183.357L429.244 182.453Z" fill="#4D4F4E"/>
<path d="M452.932 173.535L455.226 200.49L453.062 201.274L450.769 174.32L452.932 173.535Z" fill="#4D4F4E"/>
<path d="M477.083 165.96L477.862 193.001L475.658 193.663L474.879 166.622L477.083 165.96Z" fill="#4D4F4E"/>
<path d="M501.621 159.752L500.882 186.793L498.644 187.331L499.383 160.289L501.621 159.752Z" fill="#4D4F4E"/>
<path d="M526.468 154.928L524.214 181.886L521.95 182.297L524.204 155.339L526.468 154.928Z" fill="#4D4F4E"/>
<path d="M551.547 151.506L547.785 178.295L545.501 178.578L549.263 151.789L551.547 151.506Z" fill="#4D4F4E"/>
<path d="M607.518 149.159L600.487 175.281H598.185L605.217 149.159H607.518Z" fill="#4D4F4E"/>
<path d="M632.431 150.063L623.946 175.75L621.648 175.621L630.133 149.934L632.431 150.063Z" fill="#4D4F4E"/>
<path d="M657.615 152.59L647.704 177.761L645.417 177.503L655.329 152.332L657.615 152.59Z" fill="#4D4F4E"/>
<path d="M682.619 156.525L671.311 181.1L669.043 180.714L680.35 156.139L682.619 156.525Z" fill="#4D4F4E"/>
<path d="M707.362 161.855L694.694 185.758L692.451 185.246L705.119 161.343L707.362 161.855Z" fill="#4D4F4E"/>
<path d="M731.768 168.564L717.78 191.719L715.568 191.082L729.556 167.927L731.768 168.564Z" fill="#4D4F4E"/>
<path d="M755.759 176.631L740.494 198.965L738.322 198.205L753.587 175.871L755.759 176.631Z" fill="#4D4F4E"/>
<path d="M779.259 186.031L762.767 207.474L760.641 206.593L777.134 185.15L779.259 186.031Z" fill="#4D4F4E"/>
<path d="M802.196 196.734L784.527 217.218L782.454 216.22L800.123 195.735L802.196 196.734Z" fill="#4D4F4E"/>
<path d="M824.497 208.706L805.707 228.167L803.693 227.054L822.483 207.592L824.497 208.706Z" fill="#4D4F4E"/>
<path d="M870.977 239.32L849.934 256.321L848.072 254.968L869.115 237.968L870.977 239.32Z" fill="#4D4F4E"/>
<path d="M890.781 255.081L868.819 270.875L867.036 269.42L888.999 253.627L890.781 255.081Z" fill="#4D4F4E"/>
<path d="M909.671 271.929L886.857 286.466L885.159 284.914L907.973 270.376L909.671 271.929Z" fill="#4D4F4E"/>
<path d="M927.587 289.808L903.994 303.044L902.385 301.398L925.978 288.163L927.587 289.808Z" fill="#4D4F4E"/>
<path d="M944.471 308.664L920.173 320.556L918.659 318.823L942.957 306.932L944.471 308.664Z" fill="#4D4F4E"/>
<path d="M960.272 328.438L935.346 338.948L933.931 337.133L958.858 326.623L960.272 328.438Z" fill="#4D4F4E"/>
<path d="M974.939 349.066L949.463 358.162L948.152 356.271L973.629 347.174L974.939 349.066Z" fill="#4D4F4E"/>
<path d="M988.427 370.484L962.481 378.137L961.278 376.175L987.225 368.522L988.427 370.484Z" fill="#4D4F4E"/>
<path d="M1000.69 392.624L974.358 398.811L973.267 396.785L999.602 390.598L1000.69 392.624Z" fill="#4D4F4E"/>
<path d="M1011.7 415.418L985.057 420.118L984.082 418.034L1010.72 413.333L1011.7 415.418Z" fill="#4D4F4E"/>
<path d="M1031.31 467.505L1004.29 468.891L1003.58 466.702L1030.59 465.317L1031.31 467.505Z" fill="#4D4F4E"/>
<path d="M1038.06 491.898L1011.01 491.766L1010.42 489.541L1037.48 489.673L1038.06 491.898Z" fill="#4D4F4E"/>
<path d="M1043.44 516.63L1016.44 514.982L1015.98 512.727L1042.98 514.376L1043.44 516.63Z" fill="#4D4F4E"/>
<path d="M1047.43 541.626L1020.56 538.466L1020.23 536.189L1047.09 539.349L1047.43 541.626Z" fill="#4D4F4E"/>
<path d="M1050 566.805L1023.36 562.144L1023.15 559.852L1049.8 564.513L1050 566.805Z" fill="#4D4F4E"/>
<path d="M1051.17 592.09L1024.82 585.941L1024.74 583.642L1051.09 589.79L1051.17 592.09Z" fill="#4D4F4E"/>
<path d="M1050.91 617.399L1024.95 609.784L1025 607.483L1050.96 615.099L1050.91 617.399Z" fill="#4D4F4E"/>
<path d="M1049.23 642.655L1023.74 633.596L1023.92 631.302L1049.41 640.361L1049.23 642.655Z" fill="#4D4F4E"/>
<path d="M1046.14 667.776L1021.2 657.302L1021.5 655.022L1046.45 665.496L1046.14 667.776Z" fill="#4D4F4E"/>
<path d="M1041.64 692.685L1017.33 680.829L1017.76 678.569L1042.08 690.426L1041.64 692.685Z" fill="#4D4F4E"/>
<path d="M1026.89 746.35L1004.22 731.591L1004.93 729.402L1027.6 744.162L1026.89 746.35Z" fill="#4D4F4E"/>
<path d="M1018.02 770.056L996.213 754.049L997.045 751.904L1018.85 767.911L1018.02 770.056Z" fill="#4D4F4E"/>
<path d="M1007.83 793.227L986.959 776.022L987.911 773.927L1008.79 791.132L1007.83 793.227Z" fill="#4D4F4E"/>
<path d="M996.366 815.791L976.488 797.443L977.556 795.404L997.434 813.753L996.366 815.791Z" fill="#4D4F4E"/>
<path d="M983.651 837.676L964.833 818.242L966.013 816.267L984.831 835.701L983.651 837.676Z" fill="#4D4F4E"/>
<path d="M969.728 858.814L952.029 838.355L953.318 836.449L971.017 856.908L969.728 858.814Z" fill="#4D4F4E"/>
<path d="M954.642 879.138L938.118 857.719L939.512 855.888L956.036 877.307L954.642 879.138Z" fill="#4D4F4E"/>
<path d="M938.44 898.584L923.143 876.272L924.638 874.522L939.935 896.834L938.44 898.584Z" fill="#4D4F4E"/>
<path d="M921.174 917.091L907.152 893.957L908.742 892.293L922.764 915.428L921.174 917.091Z" fill="#4D4F4E"/>
<path d="M902.896 934.601L890.194 910.717L891.875 909.145L904.577 933.029L902.896 934.601Z" fill="#4D4F4E"/>
<path d="M859.417 969.345L849.752 944.079L851.613 942.726L861.279 967.992L859.417 969.345Z" fill="#4D4F4E"/>
<path d="M838.307 983.31L830.073 957.542L832.008 956.295L840.242 982.064L838.307 983.31Z" fill="#4D4F4E"/>
<path d="M816.448 996.069L809.672 969.879L811.673 968.744L818.449 994.933L816.448 996.069Z" fill="#4D4F4E"/>
<path d="M793.907 1007.58L788.61 981.054L790.672 980.033L795.969 1006.56L793.907 1007.58Z" fill="#4D4F4E"/>
<path d="M770.756 1017.81L766.955 991.03L769.071 990.126L772.872 1016.91L770.756 1017.81Z" fill="#4D4F4E"/>
<path d="M747.068 1026.73L744.774 999.777L746.938 998.992L749.231 1025.95L747.068 1026.73Z" fill="#4D4F4E"/>
<path d="M722.917 1034.31L722.138 1007.27L724.342 1006.6L725.121 1033.64L722.917 1034.31Z" fill="#4D4F4E"/>
<path d="M698.379 1040.52L699.118 1013.47L701.356 1012.94L700.617 1039.98L698.379 1040.52Z" fill="#4D4F4E"/>
<path d="M673.532 1045.34L675.786 1018.38L678.05 1017.97L675.796 1044.93L673.532 1045.34Z" fill="#4D4F4E"/>
<path d="M648.453 1048.76L652.215 1021.97L654.499 1021.69L650.737 1048.48L648.453 1048.76Z" fill="#4D4F4E"/>
</svg>
