<svg width="1000" height="1000" viewBox="0 0 1000 1000" fill="none" xmlns="http://www.w3.org/2000/svg">
<path d="M501.672 859.536V873.599H499.286V859.536H501.672ZM507.51 865.374V867.761H493.448V865.374H507.51Z" fill="#353535"/>
<path d="M459.807 856.81L458.186 870.779L455.816 870.504L457.436 856.535L459.807 856.81ZM464.933 863.282L464.658 865.653L450.689 864.032L450.964 861.661L464.933 863.282Z" fill="#353535"/>
<path d="M418.955 849.801L415.735 863.49L413.412 862.943L416.632 849.254L418.955 849.801ZM423.301 856.82L422.755 859.143L409.066 855.924L409.612 853.601L423.301 856.82Z" fill="#353535"/>
<path d="M379.182 838.13L374.407 851.357L372.162 850.547L376.938 837.32L379.182 838.13ZM382.691 845.604L381.881 847.849L368.654 843.073L369.464 840.828L382.691 845.604Z" fill="#353535"/>
<path d="M341.02 821.954L334.752 834.542L332.616 833.479L338.884 820.89L341.02 821.954ZM343.644 829.782L342.58 831.919L329.992 825.65L331.056 823.514L343.644 829.782Z" fill="#353535"/>
<path d="M304.977 801.488L297.299 813.27L295.3 811.967L302.977 800.185L304.977 801.488ZM306.681 809.566L305.378 811.566L293.596 803.888L294.899 801.889L306.681 809.566Z" fill="#353535"/>
<path d="M246.947 754.742L237.004 764.686L235.316 762.998L245.26 753.054L246.947 754.742ZM246.947 762.998L245.26 764.686L235.316 754.742L237.004 753.054L246.947 762.998Z" fill="#353535"/>
<path d="M219.276 723.882L208.253 732.613L206.771 730.743L217.795 722.011L219.276 723.882ZM218.325 732.083L216.454 733.565L207.723 722.542L209.593 721.06L218.325 732.083Z" fill="#353535"/>
<path d="M195.346 690.039L183.39 697.442L182.133 695.413L194.09 688.01L195.346 690.039ZM193.455 698.076L191.427 699.332L184.024 687.376L186.053 686.12L193.455 698.076Z" fill="#353535"/>
<path d="M175.475 653.663L162.745 659.639L161.731 657.479L174.461 651.503L175.475 653.663ZM172.671 661.429L170.511 662.443L164.535 649.713L166.695 648.699L172.671 661.429Z" fill="#353535"/>
<path d="M159.928 615.24L146.595 619.709L145.837 617.447L159.17 612.978L159.928 615.24ZM156.248 622.631L153.986 623.389L149.517 610.056L151.779 609.297L156.248 622.631Z" fill="#353535"/>
<path d="M148.914 575.282L135.154 578.184L134.661 575.849L148.421 572.947L148.914 575.282ZM144.406 582.199L142.071 582.692L139.169 568.932L141.504 568.439L144.406 582.199Z" fill="#353535"/>
<path d="M141.464 501.672H127.401V499.286H141.464V501.672ZM135.626 507.51H133.239L133.239 493.448H135.626L135.626 507.51Z" fill="#353535"/>
<path d="M143.19 459.807L129.221 458.186L129.496 455.816L143.465 457.436L143.19 459.807ZM136.718 464.933L134.347 464.658L135.968 450.689L138.339 450.964L136.718 464.933Z" fill="#353535"/>
<path d="M150.199 418.955L136.51 415.735L137.057 413.412L150.746 416.632L150.199 418.955ZM143.18 423.301L140.857 422.755L144.076 409.066L146.399 409.612L143.18 423.301Z" fill="#353535"/>
<path d="M161.87 379.183L148.643 374.407L149.453 372.162L162.68 376.938L161.87 379.183ZM154.396 382.691L152.151 381.881L156.927 368.654L159.172 369.464L154.396 382.691Z" fill="#353535"/>
<path d="M178.046 341.02L165.458 334.752L166.521 332.616L179.11 338.884L178.046 341.02ZM170.218 343.644L168.081 342.58L174.35 329.992L176.486 331.056L170.218 343.644Z" fill="#353535"/>
<path d="M198.512 304.977L186.73 297.299L188.033 295.3L199.815 302.977L198.512 304.977ZM190.434 306.681L188.434 305.378L196.112 293.596L198.111 294.899L190.434 306.681Z" fill="#353535"/>
<path d="M245.258 246.947L235.315 237.004L237.002 235.316L246.946 245.26L245.258 246.947ZM237.002 246.947L235.315 245.26L245.258 235.316L246.946 237.004L237.002 246.947Z" fill="#353535"/>
<path d="M276.118 219.276L267.387 208.253L269.257 206.771L277.989 217.795L276.118 219.276ZM267.917 218.325L266.435 216.454L277.458 207.723L278.94 209.593L267.917 218.325Z" fill="#353535"/>
<path d="M309.961 195.346L302.558 183.39L304.587 182.133L311.99 194.09L309.961 195.346ZM301.924 193.455L300.668 191.427L312.624 184.024L313.88 186.053L301.924 193.455Z" fill="#353535"/>
<path d="M346.337 175.475L340.361 162.745L342.521 161.731L348.497 174.461L346.337 175.475ZM338.571 172.671L337.557 170.511L350.287 164.535L351.301 166.695L338.571 172.671Z" fill="#353535"/>
<path d="M384.76 159.928L380.291 146.595L382.553 145.837L387.022 159.17L384.76 159.928ZM377.369 156.248L376.611 153.986L389.944 149.517L390.702 151.779L377.369 156.248Z" fill="#353535"/>
<path d="M424.718 148.914L421.816 135.154L424.151 134.661L427.053 148.421L424.718 148.914ZM417.801 144.406L417.308 142.071L431.068 139.169L431.561 141.504L417.801 144.406Z" fill="#353535"/>
<path d="M499.283 141.464L499.283 127.401H501.669L501.669 141.464H499.283ZM493.445 135.626V133.239H507.508V135.626H493.445Z" fill="#353535"/>
<path d="M540.193 143.19L541.814 129.221L544.184 129.496L542.564 143.465L540.193 143.19ZM535.067 136.718L535.342 134.347L549.311 135.968L549.036 138.339L535.067 136.718Z" fill="#353535"/>
<path d="M581.045 150.199L584.265 136.51L586.588 137.057L583.368 150.746L581.045 150.199ZM576.699 143.18L577.245 140.857L590.934 144.076L590.388 146.399L576.699 143.18Z" fill="#353535"/>
<path d="M620.818 161.87L625.593 148.643L627.838 149.453L623.062 162.68L620.818 161.87ZM617.309 154.396L618.119 152.151L631.346 156.927L630.536 159.172L617.309 154.396Z" fill="#353535"/>
<path d="M658.98 178.046L665.248 165.458L667.384 166.521L661.116 179.11L658.98 178.046ZM656.356 170.218L657.42 168.081L670.008 174.35L668.944 176.486L656.356 170.218Z" fill="#353535"/>
<path d="M695.023 198.512L702.701 186.73L704.7 188.033L697.023 199.815L695.023 198.512ZM693.319 190.434L694.622 188.434L706.404 196.112L705.101 198.111L693.319 190.434Z" fill="#353535"/>
<path d="M753.053 245.258L762.996 235.315L764.684 237.002L754.74 246.946L753.053 245.258ZM753.053 237.002L754.74 235.315L764.684 245.258L762.996 246.946L753.053 237.002Z" fill="#353535"/>
<path d="M780.724 276.118L791.747 267.387L793.229 269.257L782.205 277.989L780.724 276.118ZM781.675 267.917L783.546 266.435L792.277 277.458L790.407 278.94L781.675 267.917Z" fill="#353535"/>
<path d="M804.654 309.961L816.61 302.558L817.867 304.587L805.911 311.99L804.654 309.961ZM806.545 301.924L808.574 300.668L815.976 312.624L813.948 313.88L806.545 301.924Z" fill="#353535"/>
<path d="M824.525 346.337L837.255 340.361L838.269 342.521L825.539 348.497L824.525 346.337ZM827.329 338.571L829.489 337.557L835.465 350.287L833.305 351.301L827.329 338.571Z" fill="#353535"/>
<path d="M840.071 384.76L853.405 380.291L854.163 382.553L840.83 387.022L840.071 384.76ZM843.752 377.369L846.014 376.611L850.483 389.944L848.221 390.702L843.752 377.369Z" fill="#353535"/>
<path d="M851.086 424.718L864.846 421.816L865.339 424.151L851.579 427.053L851.086 424.718ZM855.594 417.801L857.929 417.309L860.831 431.068L858.496 431.561L855.594 417.801Z" fill="#353535"/>
<path d="M859.536 499.283H873.599V501.669H859.536V499.283ZM865.374 493.445H867.761V507.507H865.374V493.445Z" fill="#353535"/>
<path d="M856.81 540.193L870.779 541.814L870.504 544.184L856.535 542.564L856.81 540.193ZM863.282 535.067L865.653 535.342L864.032 549.311L861.661 549.036L863.282 535.067Z" fill="#353535"/>
<path d="M849.801 581.045L863.49 584.265L862.943 586.588L849.254 583.368L849.801 581.045ZM856.82 576.699L859.143 577.245L855.924 590.934L853.601 590.388L856.82 576.699Z" fill="#353535"/>
<path d="M838.13 620.817L851.357 625.593L850.547 627.838L837.32 623.062L838.13 620.817ZM845.604 617.309L847.849 618.119L843.073 631.346L840.828 630.536L845.604 617.309Z" fill="#353535"/>
<path d="M821.954 658.98L834.542 665.248L833.479 667.384L820.89 661.116L821.954 658.98ZM829.782 656.356L831.919 657.42L825.65 670.008L823.514 668.944L829.782 656.356Z" fill="#353535"/>
<path d="M801.488 695.023L813.27 702.701L811.967 704.7L800.185 697.023L801.488 695.023ZM809.566 693.319L811.566 694.622L803.888 706.404L801.889 705.101L809.566 693.319Z" fill="#353535"/>
<path d="M754.742 753.053L764.686 762.996L762.998 764.684L753.054 754.74L754.742 753.053ZM762.998 753.053L764.686 754.74L754.742 764.684L753.054 762.996L762.998 753.053Z" fill="#353535"/>
<path d="M723.882 780.724L732.613 791.747L730.743 793.229L722.011 782.205L723.882 780.724ZM732.083 781.675L733.565 783.546L722.542 792.277L721.06 790.407L732.083 781.675Z" fill="#353535"/>
<path d="M690.039 804.654L697.442 816.61L695.413 817.867L688.01 805.91L690.039 804.654ZM698.076 806.545L699.332 808.573L687.376 815.976L686.12 813.947L698.076 806.545Z" fill="#353535"/>
<path d="M653.663 824.525L659.639 837.255L657.479 838.269L651.503 825.539L653.663 824.525ZM661.429 827.329L662.443 829.489L649.713 835.465L648.699 833.305L661.429 827.329Z" fill="#353535"/>
<path d="M615.24 840.071L619.709 853.405L617.447 854.163L612.978 840.83L615.24 840.071ZM622.631 843.752L623.389 846.014L610.056 850.483L609.298 848.221L622.631 843.752Z" fill="#353535"/>
<path d="M575.282 851.086L578.184 864.846L575.849 865.339L572.947 851.579L575.282 851.086ZM582.199 855.594L582.692 857.929L568.932 860.831L568.439 858.496L582.199 855.594Z" fill="#353535"/>
</svg>
